<svg width="854" height="852" viewBox="0 0 854 852" fill="none" xmlns="http://www.w3.org/2000/svg">
<path d="M852 0H0.119995V851.88H852V0Z" fill="url(#paint0_radial_172_78)"/>
<g style="mix-blend-mode:soft-light" opacity="0.16">
<path d="M508.19 751.3L852.18 646.2L852 406.65L505.12 739.18L853.74 333.94V296.46L499.61 727.09L852 59.75V0H609.29L478.64 703.98L529.54 0H228.42L394.63 704.28L177.31 0H85.31L385.33 712.25L0.119995 49.12V279.42L374.74 725.94L0.119995 441.31V769.25L255.68 835.25L508.19 751.3Z" fill="#040000"/>
</g>
<g style="mix-blend-mode:soft-light" opacity="0.16">
<path d="M402.67 717.68L252.27 0H319.14L415.31 720.42L447.88 756.47L476.71 729.08L650.74 0H736.14L477.88 744.97L490.06 757.33L853.74 450.12V508.24L488.67 790.55L386.85 768.4L0.119995 243.64V153.34L392.24 734.32L402.67 717.68Z" fill="#040000"/>
</g>
<mask id="mask0_172_78" style="mask-type:luminance" maskUnits="userSpaceOnUse" x="0" y="0" width="852" height="852">
<path d="M852 0H0.119995V851.88H852V0Z" fill="white"/>
</mask>
<g mask="url(#mask0_172_78)">
<path d="M63.44 655.591C101.39 655.591 132.16 624.821 132.16 586.871C132.16 548.921 101.39 518.151 63.44 518.151C60.03 518.151 56.68 518.411 53.4 518.891C56.85 510.691 58.76 501.691 58.76 492.231C58.76 454.281 27.99 423.511 -9.95999 423.511C-47.91 423.511 -78.68 454.281 -78.68 492.231C-78.68 530.181 -47.91 560.951 -9.95999 560.951C-6.54999 560.951 -3.19999 560.691 0.0800095 560.211C-3.36999 568.411 -5.27999 577.411 -5.27999 586.871C-5.27999 624.821 25.49 655.591 63.44 655.591Z" fill="url(#paint1_radial_172_78)"/>
<path d="M881.67 400.61C839.63 400.61 804.27 429.08 793.75 467.79C745.31 469.91 706.68 509.84 706.68 558.8C706.68 564.68 707.26 570.43 708.32 576C702.97 575.02 697.47 574.48 691.84 574.48C648.31 574.48 611.93 605.02 602.9 645.84C593.03 648.8 584.49 654.81 578.36 662.78C569.08 659.59 559.13 657.84 548.76 657.84C507.14 657.84 472.07 685.75 461.17 723.87C444.6 706.75 421.41 696.1 395.71 696.1C378.08 696.1 361.63 701.12 347.68 709.79C339.3 681.3 312.97 660.5 281.76 660.5C243.81 660.5 213.04 691.27 213.04 729.22C213.04 739.77 215.42 749.76 219.67 758.7L121.07 756.36L0.0999756 851.89H331.56C348.02 868.23 370.67 878.33 395.7 878.33C420.73 878.33 443.38 868.23 459.84 851.89H851.99V632.02C868.19 620 880.27 602.74 885.71 582.74C934.16 580.62 972.78 540.69 972.78 491.73C972.78 442.77 931.99 400.61 881.66 400.61H881.67Z" fill="url(#paint2_radial_172_78)"/>
</g>
<mask id="mask1_172_78" style="mask-type:luminance" maskUnits="userSpaceOnUse" x="0" y="0" width="852" height="852">
<path d="M852 0H0.119995V851.88H852V0Z" fill="white"/>
</mask>
<g mask="url(#mask1_172_78)">
<path d="M365.73 832.88C367.97 826 369.2 818.65 369.2 811.02C369.2 772.04 337.6 740.45 298.63 740.45C291.08 740.45 283.8 741.65 276.98 743.85C276.12 737.39 273.65 731.45 269.99 726.42C271.5 720 272.32 713.31 272.32 706.43C272.32 658.32 233.32 619.31 185.2 619.31C177.39 619.31 169.82 620.35 162.62 622.28C151.81 609.59 135.71 601.53 117.73 601.53C106.51 601.53 96.03 604.66 87.1 610.1C87.19 608.5 87.24 606.89 87.24 605.26C87.24 557.15 48.24 518.14 0.120003 518.14C-48 518.14 -87 557.16 -87 605.27C-87 653.38 -48 692.39 0.120003 692.39V851.88H241.11C253.9 869.86 274.89 881.59 298.63 881.59C301.27 881.59 303.88 881.43 306.45 881.15C313.44 890.32 324.47 896.24 336.89 896.24C358.02 896.24 375.14 879.11 375.14 857.99C375.14 848.38 371.59 839.6 365.73 832.88Z" fill="url(#paint3_radial_172_78)"/>
<path d="M888.92 528.17C850.97 528.17 820.2 558.94 820.2 596.89C820.2 606.8 822.31 616.21 826.09 624.72C824.15 624.54 822.19 624.43 820.2 624.43C786.25 624.43 758.72 651.95 758.72 685.91C758.72 689.37 759.02 692.76 759.57 696.06C756.77 695.85 753.95 695.71 751.09 695.71C700.32 695.71 657.44 729.4 643.54 775.64C632.47 764.89 617.38 758.26 600.73 758.26C569.71 758.26 544.07 781.24 539.87 811.1C507.32 812.67 481.4 839.56 481.4 872.5C481.4 905.44 508.92 933.98 542.88 933.98C573.9 933.98 599.54 911 603.74 881.14C622.59 880.23 639.2 870.84 649.86 856.69C668 894.33 706.51 920.31 751.09 920.31C813.11 920.31 863.39 870.03 863.39 808.01C863.39 790.32 859.29 773.59 852 758.7V738.53C869.79 727.76 881.67 708.22 881.67 685.91C881.67 678.46 880.34 671.33 877.92 664.72C881.5 665.3 885.17 665.61 888.91 665.61C926.86 665.61 957.63 634.84 957.63 596.89C957.63 558.94 926.86 528.17 888.91 528.17H888.92Z" fill="url(#paint4_radial_172_78)"/>
</g>
<g style="mix-blend-mode:soft-light" opacity="0.56">
<path d="M268.46 668.3C268.46 668.3 323.81 653.27 343.43 717.71C343.43 717.71 409.88 673.84 461.84 730.49C461.84 730.49 495.04 638.22 584.94 669.58C584.94 669.58 592.18 647.86 615.61 652.12C615.61 652.12 621.57 574.17 716.13 579.71C716.13 579.71 642.44 576.73 627.53 662.34C627.53 662.34 603.68 659.78 593.03 684.91C593.03 684.91 523.39 657.22 465.04 744.97C465.04 744.97 403.64 694.71 339.03 727.08C339.03 727.08 324.26 668.3 268.46 668.3Z" fill="white"/>
</g>
<defs>
<radialGradient id="paint0_radial_172_78" cx="0" cy="0" r="1" gradientUnits="userSpaceOnUse" gradientTransform="translate(415.84 850.16) scale(1001.92)">
<stop offset="0.18" stop-color="#FDFCE8"/>
<stop offset="0.32" stop-color="#F6DE8C"/>
<stop offset="0.44" stop-color="#D7D79F"/>
<stop offset="0.61" stop-color="#B0CDB9"/>
<stop offset="0.76" stop-color="#93C7CC"/>
<stop offset="0.9" stop-color="#82C3D7"/>
<stop offset="1" stop-color="#7CC2DC"/>
</radialGradient>
<radialGradient id="paint1_radial_172_78" cx="0" cy="0" r="1" gradientUnits="userSpaceOnUse" gradientTransform="translate(385.33 397.981) scale(408.12 408.12)">
<stop offset="0.33" stop-color="white"/>
<stop offset="1" stop-color="#F8DE8B"/>
</radialGradient>
<radialGradient id="paint2_radial_172_78" cx="0" cy="0" r="1" gradientUnits="userSpaceOnUse" gradientTransform="translate(385.32 397.98) scale(408.12 408.12)">
<stop offset="0.33" stop-color="white"/>
<stop offset="1" stop-color="#F8DE8B"/>
</radialGradient>
<radialGradient id="paint3_radial_172_78" cx="0" cy="0" r="1" gradientUnits="userSpaceOnUse" gradientTransform="translate(237.77 635.64) scale(362.13 362.13)">
<stop offset="0.33" stop-color="white"/>
<stop offset="1" stop-color="#F8DE8B"/>
</radialGradient>
<radialGradient id="paint4_radial_172_78" cx="0" cy="0" r="1" gradientUnits="userSpaceOnUse" gradientTransform="translate(647.55 650.84) scale(384.33 384.33)">
<stop offset="0.33" stop-color="white"/>
<stop offset="1" stop-color="#F8DE8B"/>
</radialGradient>
</defs>
</svg>
