<svg width="173" height="141" viewBox="0 0 173 141" fill="none" xmlns="http://www.w3.org/2000/svg">
<path d="M109.93 53.0399C94.96 56.5299 91.15 76.0999 84.99 88.6299C80.65 87.0099 72.75 81.9899 73.47 66.9799C74.46 46.3699 69.11 43.9999 57.82 40.4299C46.53 36.8599 23.34 20.4199 17.39 3.76988C11.45 -12.8701 4.90999 30.5199 35.42 38.0499C35.42 38.0499 20.76 38.0499 9.45999 29.5299C-1.83001 21.0099 0.549992 46.9699 33.24 49.7399C33.24 49.7399 25.25 54.2799 9.78999 51.4099C-5.67001 48.5399 7.40999 71.2699 33.63 64.7999C33.63 64.7999 29.27 70.9399 18.97 71.7299C8.66999 72.5199 17.38 87.3799 36.41 77.6699C36.41 77.6699 36.21 80.8399 29.67 84.4099C23.13 87.9799 33.83 94.7099 45.92 84.2099C45.92 84.2099 45.52 88.1699 40.57 92.2299C36.52 95.5499 45.72 100.25 57.61 92.1299C57.61 92.1299 57.02 94.4399 54.44 96.5499C51.86 98.6699 55.43 104.41 63.36 98.6699C63.36 98.6699 61.18 101.45 63.76 101.15C66.34 100.85 67.52 99.0599 67.52 99.0599C67.52 99.0599 66.55 104.29 70.27 102.32C54.43 110.05 37.27 109.3 37.27 109.3C18.51 105.87 18.25 80.7699 14.29 92.9199C11.57 101.27 16.57 105.75 19.98 107.74C5.72999 100.43 0.769989 87.1999 0.0199894 101.13C-0.770011 115.92 19.57 120.68 19.57 120.68C6.88999 119.36 1.86999 111.7 2.12999 120.42C2.38999 129.14 17.72 129.93 17.72 129.93C11.64 134.42 14.81 142.61 17.72 139.25C20.63 135.89 31.46 131.25 40.18 132.57C48.9 133.89 73.07 149.21 102.99 132.17C131.29 116.05 118.64 86.5999 121.81 76.2899C124.98 65.9799 136.87 69.6899 136.87 69.6899C136.87 69.6899 129.21 48.5499 109.92 53.0499L109.93 53.0399Z" fill="url(#paint0_radial_174_96)"/>
<path d="M128.15 82.18C128.15 82.18 130.3 73.15 139.33 67.01C144.15 63.73 150.94 61.28 160.42 61.46C160.42 61.46 136.3 59.2 129.4 83.99L128.15 82.18Z" fill="#3EAC4A"/>
<path d="M138.53 67.5798C138.53 67.5798 137.07 59.7798 142.69 57.0098C142.69 57.0098 144.15 62.9698 138.53 67.5798Z" fill="#3EAC4A"/>
<path d="M151.01 61.83C151.01 61.83 153.19 53.05 159.6 51.79C159.6 51.79 158.57 58.98 151.01 61.83Z" fill="#3EAC4A"/>
<path d="M159.06 60.7702C159.06 60.7702 165.2 54.6902 172.34 57.0102C172.34 57.0102 164.28 61.1702 159.06 60.7702Z" fill="#3EAC4A"/>
<path d="M159.06 61.8301C159.06 61.8301 163.62 62.4901 164.48 66.9801C164.48 66.9801 160.05 65.2001 159.06 61.8301Z" fill="#3EAC4A"/>
<path d="M145.06 65.1998C145.06 65.1998 152.13 62.6998 156.49 67.5798C156.49 67.5798 149.69 69.0298 145.06 65.1998Z" fill="#3EAC4A"/>
<g style="mix-blend-mode:soft-light">
<path d="M128.15 82.18C128.15 82.18 130.3 73.15 139.33 67.01C144.15 63.73 150.94 61.28 160.42 61.46C160.42 61.46 136.3 59.2 129.4 83.99L128.15 82.18Z" fill="url(#paint1_linear_174_96)"/>
<path d="M138.53 67.5798C138.53 67.5798 137.07 59.7798 142.69 57.0098C142.69 57.0098 144.15 62.9698 138.53 67.5798Z" fill="url(#paint2_linear_174_96)"/>
<path d="M151.01 61.83C151.01 61.83 153.19 53.05 159.6 51.79C159.6 51.79 158.57 58.98 151.01 61.83Z" fill="url(#paint3_linear_174_96)"/>
<path d="M159.06 60.7702C159.06 60.7702 165.2 54.6902 172.34 57.0102C172.34 57.0102 164.28 61.1702 159.06 60.7702Z" fill="url(#paint4_linear_174_96)"/>
<path d="M159.06 61.8301C159.06 61.8301 163.62 62.4901 164.48 66.9801C164.48 66.9801 160.05 65.2001 159.06 61.8301Z" fill="url(#paint5_linear_174_96)"/>
<path d="M145.06 65.1998C145.06 65.1998 152.13 62.6998 156.49 67.5798C156.49 67.5798 149.69 69.0298 145.06 65.1998Z" fill="url(#paint6_linear_174_96)"/>
</g>
<defs>
<radialGradient id="paint0_radial_174_96" cx="0" cy="0" r="1" gradientUnits="userSpaceOnUse" gradientTransform="translate(78.74 114.46) scale(150.97 150.97)">
<stop offset="0.33" stop-color="white"/>
<stop offset="1" stop-color="#F8DE8B"/>
</radialGradient>
<linearGradient id="paint1_linear_174_96" x1="141.57" y1="83.05" x2="151.87" y2="40.52" gradientUnits="userSpaceOnUse">
<stop stop-color="white"/>
<stop offset="1" stop-color="#040000"/>
</linearGradient>
<linearGradient id="paint2_linear_174_96" x1="135.82" y1="81.6598" x2="146.13" y2="39.1198" gradientUnits="userSpaceOnUse">
<stop stop-color="white"/>
<stop offset="1" stop-color="#040000"/>
</linearGradient>
<linearGradient id="paint3_linear_174_96" x1="148.54" y1="84.74" x2="158.85" y2="42.21" gradientUnits="userSpaceOnUse">
<stop stop-color="white"/>
<stop offset="1" stop-color="#040000"/>
</linearGradient>
<linearGradient id="paint4_linear_174_96" x1="158.84" y1="87.2302" x2="169.14" y2="44.7002" gradientUnits="userSpaceOnUse">
<stop stop-color="white"/>
<stop offset="1" stop-color="#040000"/>
</linearGradient>
<linearGradient id="paint5_linear_174_96" x1="156.39" y1="86.6401" x2="166.69" y2="44.1101" gradientUnits="userSpaceOnUse">
<stop stop-color="white"/>
<stop offset="1" stop-color="#040000"/>
</linearGradient>
<linearGradient id="paint6_linear_174_96" x1="146.45" y1="84.2298" x2="156.76" y2="41.6998" gradientUnits="userSpaceOnUse">
<stop stop-color="white"/>
<stop offset="1" stop-color="#040000"/>
</linearGradient>
</defs>
</svg>
