<?xml version="1.0" encoding="utf-8"?>
<!-- Generator: Adobe Illustrator 27.8.1, SVG Export Plug-In . SVG Version: 6.00 Build 0)  -->
<svg version="1.1" id="圖層_1" xmlns="http://www.w3.org/2000/svg" xmlns:xlink="http://www.w3.org/1999/xlink" x="0px" y="0px"
	 viewBox="0 0 399 490" style="enable-background:new 0 0 399 490;" xml:space="preserve">
<style type="text/css">
	.st0{fill:url(#SVGID_1_);}
	.st1{fill:url(#SVGID_00000081618492814283749640000011707004527863617176_);}
	.st2{fill:url(#SVGID_00000002351695347456959010000016847080601003213994_);}
	.st3{fill:url(#SVGID_00000023243743367232417640000001620964484612490888_);}
	.st4{fill:#FFFFFF;}
	.st5{fill:url(#SVGID_00000070103339441388678460000002792601593992731316_);}
	.st6{fill:#3EAC4A;}
	.st7{fill:url(#SVGID_00000034807445420436341060000005725291279858892695_);}
	.st8{fill:url(#SVGID_00000129164310859641477350000000527423101009533845_);}
	.st9{fill:url(#SVGID_00000070099574108786339040000002016189894904411824_);}
	.st10{fill:url(#SVGID_00000118356981244393294110000007290524932062351008_);}
	.st11{fill:url(#SVGID_00000062906658715967522000000011790941636591374495_);}
	.st12{fill:url(#SVGID_00000044877851304575341420000011936978966244413067_);}
</style>
<g>
	
		<linearGradient id="SVGID_1_" gradientUnits="userSpaceOnUse" x1="0" y1="643.6" x2="123.8" y2="643.6" gradientTransform="matrix(1 0 0 1 0 -518)">
		<stop  offset="0.32" style="stop-color:#FFFFFF"/>
		<stop  offset="0.38" style="stop-color:#F7F7F7"/>
		<stop  offset="0.47" style="stop-color:#E2E1E1"/>
		<stop  offset="0.58" style="stop-color:#BFBEBE"/>
		<stop  offset="0.7" style="stop-color:#8F8D8D"/>
		<stop  offset="0.84" style="stop-color:#514E4E"/>
		<stop  offset="0.99" style="stop-color:#070303"/>
		<stop  offset="1" style="stop-color:#040000"/>
	</linearGradient>
	<path class="st0" d="M123.8,168.2v33.5H7.7v-26.4L63.5,123c5.4-5.1,9-9.5,10.9-13.1c1.8-3.6,2.8-7.3,2.8-11c0-4.8-1.6-8.6-4.9-11.3
		c-3.3-2.7-8-4.1-14.3-4.1c-5.5,0-10.6,1.2-15.2,3.7S34.4,93.3,31.4,98L0,80.6c5.8-9.7,14-17.3,24.5-22.8s22.9-8.3,37.3-8.3
		c11.4,0,21.4,1.8,30.2,5.5c8.7,3.7,15.6,9,20.5,15.9s7.3,14.9,7.3,24c0,8.1-1.7,15.7-5.2,22.9c-3.5,7.2-10.2,15.3-20.1,24.4
		l-28.1,26H123.8z"/>
	
		<linearGradient id="SVGID_00000158711422459611543780000004856869644886555267_" gradientUnits="userSpaceOnUse" x1="92.8" y1="643.4" x2="244.6" y2="643.4" gradientTransform="matrix(1 0 0 1 0 -518)">
		<stop  offset="0.32" style="stop-color:#FFFFFF"/>
		<stop  offset="0.38" style="stop-color:#F7F7F7"/>
		<stop  offset="0.47" style="stop-color:#E2E1E1"/>
		<stop  offset="0.58" style="stop-color:#BFBEBE"/>
		<stop  offset="0.7" style="stop-color:#8F8D8D"/>
		<stop  offset="0.84" style="stop-color:#514E4E"/>
		<stop  offset="0.99" style="stop-color:#070303"/>
		<stop  offset="1" style="stop-color:#040000"/>
	</linearGradient>
	<path style="fill:url(#SVGID_00000158711422459611543780000004856869644886555267_);" d="M168.7,86.2c21.6,0,39.2,17.6,39.2,39.2
		s-17.6,39.2-39.2,39.2s-39.2-17.6-39.2-39.2S147.1,86.2,168.7,86.2z M168.7,49.5c-41.9,0-75.9,34-75.9,75.9s34,75.9,75.9,75.9
		s75.9-34,75.9-75.9S210.6,49.5,168.7,49.5z"/>
	
		<linearGradient id="SVGID_00000111171383573290053560000017583640899478410896_" gradientUnits="userSpaceOnUse" x1="191.2" y1="643.6" x2="314.9" y2="643.6" gradientTransform="matrix(1 0 0 1 0 -518)">
		<stop  offset="0.32" style="stop-color:#FFFFFF"/>
		<stop  offset="0.38" style="stop-color:#F7F7F7"/>
		<stop  offset="0.47" style="stop-color:#E2E1E1"/>
		<stop  offset="0.58" style="stop-color:#BFBEBE"/>
		<stop  offset="0.7" style="stop-color:#8F8D8D"/>
		<stop  offset="0.84" style="stop-color:#514E4E"/>
		<stop  offset="0.99" style="stop-color:#070303"/>
		<stop  offset="1" style="stop-color:#040000"/>
	</linearGradient>
	<path style="fill:url(#SVGID_00000111171383573290053560000017583640899478410896_);" d="M314.9,168.2v33.5H198.8v-26.4l55.8-52.2
		c5.4-5.1,9-9.5,10.9-13.1c1.8-3.6,2.8-7.3,2.8-11c0-4.8-1.6-8.6-4.9-11.3c-3.3-2.7-8-4.1-14.3-4.1c-5.5,0-10.6,1.2-15.2,3.7
		c-4.6,2.5-8.4,6.1-11.4,10.8l-31.3-17.5c5.8-9.7,14-17.3,24.5-22.8s22.9-8.3,37.3-8.3c11.4,0,21.4,1.8,30.2,5.5
		c8.7,3.7,15.5,9,20.5,15.9c4.9,6.9,7.4,14.9,7.4,24c0,8.1-1.7,15.7-5.2,22.9c-3.5,7.2-10.2,15.3-20.1,24.4l-28.1,26L314.9,168.2
		L314.9,168.2z"/>
	
		<linearGradient id="SVGID_00000154415926890197574180000008585321986097980551_" gradientUnits="userSpaceOnUse" x1="276.63" y1="644.55" x2="398.83" y2="644.55" gradientTransform="matrix(1 0 0 1 0 -518)">
		<stop  offset="0.32" style="stop-color:#FFFFFF"/>
		<stop  offset="0.38" style="stop-color:#F7F7F7"/>
		<stop  offset="0.47" style="stop-color:#E2E1E1"/>
		<stop  offset="0.58" style="stop-color:#BFBEBE"/>
		<stop  offset="0.7" style="stop-color:#8F8D8D"/>
		<stop  offset="0.84" style="stop-color:#514E4E"/>
		<stop  offset="0.99" style="stop-color:#070303"/>
		<stop  offset="1" style="stop-color:#040000"/>
	</linearGradient>
	<path style="fill:url(#SVGID_00000154415926890197574180000008585321986097980551_);" d="M388.9,125.4c6.6,7.5,9.8,16.7,9.8,27.4
		c0,8.8-2.4,16.9-7.1,24.3c-4.7,7.5-11.9,13.5-21.6,18.1s-21.6,6.9-35.9,6.9c-10.4,0-20.8-1.3-31-3.8s-19.1-6.1-26.6-10.8l15.2-31.5
		c5.8,3.9,12.3,7,19.6,9.1c7.3,2.1,14.4,3.2,21.5,3.2s12.9-1.3,17.1-4s6.4-6.5,6.4-11.4c0-9.6-7.5-14.4-22.6-14.4h-17.6V112
		l26.5-28.6h-58.4V51h107.1v26.3l-30.7,33C373,112.8,382.4,117.8,388.9,125.4L388.9,125.4z"/>
</g>
<path class="st4" d="M114.5,2.8c2.4,2.2,5.5,5.5,6.9,7.6l-2.6,1.9c-0.3-0.6-0.8-1.2-1.4-2c-13.9,0.7-15.7,0.7-17.1,1.2
	c-0.2-0.6-0.7-2.2-1-3c0.7-0.2,1.3-0.7,2.2-1.5c0.9-0.8,3.8-4,5.5-7.1l3.1,1.3c-1.7,2.4-3.7,4.8-5.7,6.7l10.7-0.3
	c-1-1.2-2.1-2.2-3-3.2L114.5,2.8L114.5,2.8z M101.1,13.3h17.6v11.4h-3.3v-1.3h-11.1v1.3h-3.2V13.3L101.1,13.3z M104.3,16.3v4.2h11.1
	v-4.2H104.3z"/>
<path class="st4" d="M135.2,17.3l0.6,2.8c-3.7,1.6-7.7,3.2-10.8,4.4l-1.4-3.2l0,0c1.8-0.6,4.3-1.4,6.9-2.3V9.7h-6V6.6h6V0.8h3.2v17
	L135.2,17.3L135.2,17.3z M143.8,21c1,0,1.1-1.2,1.3-5.9c0.8,0.6,2.1,1.2,3,1.5c-0.3,5.4-1,7.5-4,7.5H141c-2.9,0-3.7-1.1-3.7-4.7V0.9
	h3.2v5.7h6.8v3.1h-6.8v9.7c0,1.4,0.1,1.6,1,1.6H143.8L143.8,21z"/>
<path class="st4" d="M163.7,7v2.9h8.4v8.8c0,1.5-0.3,2.4-1.4,2.9c-1.1,0.5-2.6,0.5-4.6,0.5c-0.1-0.9-0.6-2.2-1-3.1
	c1.3,0.1,2.8,0.1,3.2,0c0.4,0,0.6-0.1,0.6-0.4v-5.7h-5.2v11.8h-3.2V12.9h-4.8v9.2h-3.1V9.9h8V7h-10.2V4h10.5c-0.4-0.9-0.9-2-1.3-2.9
	l3.1-1c0.6,1.2,1.5,2.8,2,3.8h9.6v3L163.7,7L163.7,7z"/>
<path class="st4" d="M198.3,1.9c0,0,0,0.8-0.1,1.2c-0.4,5.3-0.8,7.6-1.6,8.5c-0.7,0.7-1.4,0.9-2.4,1c-0.8,0.1-2.4,0.1-3.9,0
	c-0.1-0.9-0.4-2.1-1-2.9c1.4,0.1,2.8,0.2,3.4,0.2c0.5,0,0.8-0.1,1-0.3c0.4-0.4,0.8-1.8,1-4.9h-6.6c-0.9,3.5-2.9,6.7-8.3,8.9h17.4
	v11.2h-3.3v-1h-11.4v1h-3.2v-11c-0.6,0.2-1.1,0.4-1.8,0.6c-0.3-0.8-1.1-2.1-1.8-2.7c6.1-1.5,7.9-4.2,8.8-6.9h-7V1.9H198.3L198.3,1.9
	z M182.8,16.5v4.6h11.4v-4.6H182.8z"/>
<path class="st4" d="M216.6,1.2c-0.1,0.2-0.3,0.3-0.4,0.5c2.4,2.1,6.7,3.9,10.8,4.7c-0.6,0.6-1.5,1.7-2,2.4
	c-0.5-0.1-1.1-0.3-1.6-0.5V15h-18.2V8.5c-0.6,0.2-1.1,0.4-1.6,0.5c-0.3-0.6-1.1-1.8-1.7-2.4c4.8-1.1,9.5-3.3,11.8-6.3L216.6,1.2
	L216.6,1.2z M222.6,8c-1.2-0.4-2.4-1-3.6-1.6V7h-9.2V6.5c-1,0.5-2.1,1-3.2,1.4L222.6,8L222.6,8z M206.8,15.9h15.4v8.8H219v-0.6h-9.1
	v0.7h-3.1L206.8,15.9L206.8,15.9z M209.8,13.2c-0.1-0.8-0.5-1.9-0.9-2.7l2-0.6H208v3.3H209.8z M209.9,17.9v1h9.1v-1H209.9z
	 M219,22.1v-1h-9.1v1H219z M213.1,9.9h-2c0.5,0.9,0.9,2,1,2.8l-1.7,0.5h2.7V9.9z M216.8,5c-0.8-0.5-1.5-1.1-2.2-1.7
	c-0.7,0.6-1.4,1.2-2.2,1.7H216.8L216.8,5z M215.6,9.9v3.3h2.4l-1.6-0.4c0.4-0.8,0.8-2,1-2.9H215.6z M220.8,9.9H218l2,0.5
	c-0.5,1-1,2.1-1.4,2.8h2.1L220.8,9.9L220.8,9.9z"/>
<path class="st4" d="M228.2,20.2l1.8-2.4c1.1,1.1,2.6,2,4.3,2c2,0,3.3-1,3.3-2.7c0-1.9-1.1-3.1-5.3-3.1v-2.8c3.5,0,4.7-1.2,4.7-3
	c0-1.5-0.9-2.4-2.6-2.4c-1.4,0-2.5,0.7-3.7,1.7l-2-2.3c1.7-1.5,3.5-2.4,5.8-2.4c3.7,0,6.3,1.8,6.3,5.2c0,2.1-1.2,3.6-3.2,4.4v0.1
	c2.2,0.6,3.9,2.2,3.9,4.8c0,3.5-3.1,5.6-6.8,5.6C231.6,22.9,229.5,21.8,228.2,20.2L228.2,20.2z"/>
<path class="st4" d="M245,19.4h4.1V7.2h-3.5V4.8c1.9-0.4,3.3-0.9,4.5-1.6h2.8v16.2h3.6v3.1H245V19.4L245,19.4z"/>
<path class="st4" d="M273.5,1.2c-0.1,0.2-0.3,0.3-0.4,0.5c2.4,2.1,6.7,3.9,10.8,4.7c-0.6,0.6-1.5,1.7-2,2.4
	c-0.5-0.1-1.1-0.3-1.6-0.5V15h-18.2V8.5c-0.5,0.2-1.1,0.4-1.6,0.5c-0.3-0.6-1.1-1.8-1.7-2.4c4.8-1.1,9.5-3.3,11.8-6.3L273.5,1.2
	L273.5,1.2z M279.5,8c-1.2-0.4-2.4-1-3.5-1.6V7h-9.2V6.5c-1,0.5-2.1,1-3.2,1.4L279.5,8L279.5,8z M263.7,15.9h15.4v8.8h-3.2v-0.6
	h-9.1v0.7h-3.1L263.7,15.9L263.7,15.9z M266.7,13.2c-0.1-0.8-0.5-1.9-0.9-2.7l2-0.6h-3v3.3H266.7z M266.8,17.9v1h9.1v-1H266.8z
	 M275.9,22.1v-1h-9.1v1H275.9z M270,9.9h-2c0.5,0.9,0.9,2,1,2.8l-1.7,0.5h2.7V9.9L270,9.9z M273.7,5c-0.8-0.5-1.5-1.1-2.2-1.7
	c-0.7,0.6-1.4,1.2-2.2,1.7H273.7L273.7,5z M272.5,9.9v3.3h2.4l-1.6-0.4c0.4-0.8,0.8-2,1-2.9H272.5z M277.6,9.9h-2.7l2,0.5
	c-0.5,1-1,2.1-1.4,2.8h2.1V9.9z"/>
<path class="st4" d="M289.6,15.7c-0.2,3.3-0.8,6.8-2.2,9.3c-0.5-0.6-1.9-1.6-2.5-2c1.7-3,1.8-7.4,1.8-10.8V2.8l0,0
	c3.1-0.4,6.6-1,8.9-1.9l2,2.6c-2.3,0.7-5.1,1.2-7.8,1.5v2h6.7v8.7H289.6L289.6,15.7z M289.7,9.7v3.2h3.7V9.7H289.7z M309.6,12.1
	h-2.4v12.5h-3.1V12.1h-2.7c-0.1,4.1-1,9.5-4.6,12.8c-0.5-0.6-1.8-1.7-2.4-2.1c3.6-3.2,3.9-8.1,3.9-11.9V2.8c3.2-0.4,6.7-1.2,9-2.1
	l2,2.7c-2.3,0.8-5.1,1.4-7.8,1.7v4h8.1V12.1z"/>
<path class="st4" d="M93.3,234.3v1.2l-3.3,1.9l-0.9,1.3c0.9-0.9,3.7-1.5,8.2-1.9h2.3c3-0.2,4.7,2.8,5.1,9.2
	c0.6,0.3,0.1,7.8-1.8,22.7l-0.2,3.8l2,1.9l0.2,1.8c0.9,0.9-2.3,4.5-9.2,11l-9.5,9.7v0.2l9,4.7c7,2.9,15.8,1.4,26.3-4.4l0.5,0.6v1.7
	c-3.8,4.6-11.1,7.1-22,7.3c-4.2-0.2-9.4-2.1-15.7-5.6l-4.4,2.9h-2.4l-1.2-1.5v-0.6c-0.4-0.4,3.7-5.1,12.4-13.9l6.7-8.6l-12.6,5
	l-1.3,0.2c-1.4,0-2.5-0.5-3.3-1.6v-0.6c0.2-1.3,1.4-2.1,3.5-2.8l0.7-0.4c-6.3-12.1-5.1-26.8,3.8-43.8l4.1-2.3
	C91.4,233.3,92.5,233.5,93.3,234.3L93.3,234.3z M82.6,263v1.5l0.4,0.4l1.9-1.3l-1.7-1.1H83L82.6,263z M87.2,261.2l0.4,1.6l6.8-1.1
	l2,0.6v1.9c0.2,0.9-2.3,1.8-7.5,2.7l-3.8,0.9l-2.4-0.9c-0.2,3.4,1.2,7.1,4,11l9.4-3.3c1.9-0.9,2.8-3.3,2.6-7.6l1-8.8l-2.3-0.6h-1.1
	C93.4,258.2,90.4,259.4,87.2,261.2L87.2,261.2z M89.1,246.4h-1.9l-1.3-1.3c-0.5,0.3-1.5,4.6-2.9,12.8c1.5-0.9,5.4-2.3,11.4-4
	c1.3-0.4,3.1-0.4,5.4-0.2c0.6,0.2,1.1-1.2,1.1-4c0.6-2.1,0.3-4.7-1.1-7.5l-1.6-1.5h-1.3C92.8,241.2,90.2,243.1,89.1,246.4z"/>
<path class="st4" d="M165.9,278.6c0.9-0.1,1.5,0.5,1.9,2c0.5,0.8-0.8,2.7-4,5.7c1.6,3.2,2.8,6.9,3.6,10.7l0.2,2.3
	c0.4,2.8-1.4,5.4-5.5,7.5L161,307c-3.3-0.8-5.3-2.7-5.8-5.8c-0.4-3.9,0.8-8.5,3.6-13.6l1.1-1.9l-13.6,7.3l-3.3,0.9l-3-1.1l-0.6-0.8
	v-1.1l2.1-2.4h1.5l0.8,1.5c1.4,0.7,8.5-3.2,21.3-11.5L165.9,278.6L165.9,278.6z M166.4,264.1l1.7,1.3v1.6c-6,2.1-12,4.9-17.8,8.2
	l-1.7,0.2c-1.1,0-1.9-0.4-2.5-1.4v-1.3l2.7-2.4l1.7,0.4L165,264L166.4,264.1L166.4,264.1z M166.4,248.7c1.3,0.3,1.9,0.9,2.1,1.7v1.5
	c0,0.7-2.3,1.4-6.6,2c-3.8,2.4-7.8,4.2-12.1,5.5h-1.5l-1.6-1.3v-1.4c-0.2-0.4,1.2-1.1,4-1.9c0.2,0.4,2.6-0.5,6.9-2.9l7.8-3.2
	L166.4,248.7L166.4,248.7z M167,241.4l1.3,3.3c0.2,1.2-0.5,2-2.4,2.6h-0.8c-0.6-3.6-3.4-6.1-8.5-7.4c-1.3,0.2-3.9-1-7.7-3.5l-1.8-2
	l1-1.1C153,233.7,159.2,236.5,167,241.4L167,241.4z M158.4,299.5c-0.2,1.2,0.5,2.3,2.2,3.3h0.8c1.9-1.3,2.8-3,2.6-5.1l-1.9-8.2h-0.2
	C159.8,292.6,158.6,295.9,158.4,299.5L158.4,299.5z M187.6,244.1c0.8,0.2,1.6,0.9,2.5,2.1c0.5,2.4-0.2,5.4-2.3,9l0.1,1.1
	c0,1.4-1.4,2.9-4.2,4.4l-6.7,9.5l-2.1,1.8h-1.4l-1.1-1.3c2.6-2,5.2-5.5,7.7-10.2c0.2-0.4-0.5-0.5-2.3-0.4c-1.2,0.4-3.4,0-6.8-1.3
	l-1.1-1.3v-0.8l1.3-1.3l8,1.1h2.8c0.9,0,2.1-2.5,3.8-7.4v-0.9l-0.4-0.4l-7.7,3c-1.3,2.8-2,4-2.1,3.3l-0.9,0.2
	c-1.1-0.1-1.6-0.5-1.6-1.3v-1.6c2.1-3.4,6.1-5.9,11.7-7.2l0.6-0.2L187.6,244.1L187.6,244.1z M201.4,261.3c1.1,0.4,1.7,1.3,1.9,2.4
	c0.5,0.8-0.8,2.3-4,4.6l-2.9,3.5l3.6-0.9h0.9c1.2,0.3,1.9,1.3,2.3,2.8v1c-0.4,2.4-3.9,5.8-10.3,10.3l-2,0.2
	c-1.5-0.4-2.5-1.3-3.1-2.7c-1.3-0.6,0.5-4.7,5.6-12.2l0.9-1.8l-10.5,4.2l-3.6-0.4l-0.9-1.1v-1c-0.2-1,2-1.6,6.6-1.9l13.2-6.1
	l1.1-0.9H201.4L201.4,261.3z M203.1,283.4c0.9,0.4,1.4,1.1,1.7,2c0.8,0.6-1.5,4.1-6.8,10.3l-3.8,6.5l0.4,0.4c2.5,0.3,5.6-1,9.2-4
	h1.3c0.6,0.8,0.8,1.5,0.5,2.1c-2.8,4.1-6.7,6.2-11.5,6.5c-1.8,0-3.3-1.4-4.4-4.2c-0.6-0.2,0.2-2.3,2.5-5.9l1.1-1.4
	c-3-0.5-6.7-3.2-11.1-8.2l-0.2-1.9l1.3-1.5h0.8c-0.5,1.2,1.8,3.1,7,5.9l2.7,1.5l1.3-0.2l1.3,1.1l3.1-4.4l-0.4-2.1
	c0.2-0.9,1.1-1.6,2.5-2.5L203.1,283.4L203.1,283.4z M192.2,278.6l-0.6,1.6l0.6,0.4c1.2,0,3.2-1.6,6.2-5l-0.6-0.6
	C195.9,275.4,193.9,276.6,192.2,278.6L192.2,278.6z M207.9,241.4c1,0.3,1.5,0.9,1.5,1.7v0.8l-7.6,7.4l-0.5,0.9l5.2,2
	c0.9,0.2,1.4,1.2,1.7,2.9l-1.3,1.5h-1.4c0.1-0.6-2.8-1.8-8.8-3.5c-0.6,0.2-1.4-1-2.4-3.6c-1.1-0.4-1.5-1.9-1.3-4.6l1.9-4.2l1.9-0.2
	l1.4,1.4v1.5l-1.6,2.4v0.5l1.6,1.3l8.2-7.9l0.6-0.2L207.9,241.4L207.9,241.4z"/>
<path class="st4" d="M251.7,244.5c1.3,0.3,2.6,1.4,4,3.3l-0.2,2.2l-0.2,0.6c1.8-0.4,4.2-1.6,7.2-3.6h1.4c1.3,0.9,1.7,1.5,1.5,2
	c0.5,1.1-1.5,2.5-6.1,4.4l-5.1,2.6c-0.9,0.2-0.9,3.8,0,10.6l0.2,0.2l9.2-3.8l1.3-1.1l-0.6-3.1l1.1-0.9c1.9,0.4,3.2,1.7,4,3.8v1.5
	c0.4,1.8-4.4,4.5-14.5,8c-1.7,2.8-0.3,14.1,4.2,33.6l-1.2,1.6c-1.9,1.3-11.2-4.1-27.9-16.1v-1.7l1.1-0.4c6.2,4.5,13.6,8.3,22.2,11.2
	l0.6-0.4c-1.3-6.2-2.6-14.8-3.7-25.6l-0.2-0.2c-2.3,1.4-6.3,2.8-12.4,4.2c-2.3,0.6-4.2-0.2-5.7-2.4v-1.4l1.9-1.5h1.3l1.1,0.9
	c1.7,0.8,6.4-0.8,14-4.4l-0.8-9.7l-0.4-0.4c-1.5,1.2-4.8,2.4-10.1,3.5l-1.9,0.2c-0.9,0.4-2.3-0.1-4.2-1.8l-0.2-1.5
	c0.1-1,0.9-1.7,2.4-2.1h1.1l1,0.9c3.2,0.6,7.3-1,12.5-4.8c0.3-2.4,0.2-4.7-0.4-7.1l1.2-1.3L251.7,244.5L251.7,244.5z M259,234.3
	c1.8,1.1,2.6,1.9,2.1,2.5l0.2,1.3c-0.4,2.2-1.4,3.1-2.9,3.1h-1.7l-0.6-1.3l0.2-1.2l-0.4-0.4l-13.6,0.6c-1.3-0.5-1.8-1.1-1.8-1.7
	l-0.2-1.5c-0.2-1.3,3.1-1.8,9.8-1.6l3.2-0.4L259,234.3L259,234.3z"/>
<path class="st4" d="M315.9,244.9l5.3,2.1l0.4,2c0.4,1.3-1.9,2.4-7.1,3.2l-6.8,3.3c-0.4,0-0.6,1.2-0.4,3.6l0.2,9.2
	c0.1,2.4,0.3,3.3,0.6,2.9c3.8-1.5,7.8-2,12.2-1.8c3,0.3,4.9,2,5.8,5v1.4c-0.2,2-1.2,3.2-2.9,3.6h-0.6l-0.9-1l0.2-3.4
	c-1.1-1.5-1.8-2-2.3-1.8c-3.2-0.2-7.2,0.6-11.8,2.7l2.4,16.7l0.6,3.3l-1.3,1.6h-2.1c-0.4,0.4-3.9-2.4-10.4-8.6l-3.4-3.3
	c-0.5-0.5-0.8-1.6-0.5-3.1c0.1-2.1,3.9-5.3,11.3-9.5l-1.5-14.9l-0.2-0.2c-2.3,1.3-4.9,2-8.2,2.1l-2.5-1.3l-0.2-1.5
	c-0.2-0.8,2.3-1.5,7.3-2.3l3.8-1.9c-0.3-2.9,0-6.6,0.9-11.1c0.2-0.6,0.9-1.1,1.9-1.3C305.9,240.2,309.3,241.6,315.9,244.9
	L315.9,244.9z M298.3,283.4l-0.2,0.8c0.1,1.1,2.5,3.1,7.2,6.3l0.6-0.4l-1.5-12.4l-0.4,0.2C302.9,278.4,301,280.2,298.3,283.4
	L298.3,283.4z M307.3,250.6l0.4,0.4l4.8-2.4l0.2-0.2l-4.2-2.5C307.8,245.9,307.4,247.4,307.3,250.6L307.3,250.6z M338.6,243.4
	c1.3,0.3,2.3,1.2,3,2.6c0.4,1.1-0.3,2.3-2.1,3.8c-1.9,9.9-3.3,20.5-4,31.9c-0.6,4,0,7.6,1.7,11l2.3,2.5c0.4,1.5,4.8,0.5,13.2-2.9
	l3.6-0.6l1.5,1.2v1.3c0.1,1.1-2.5,2-7.7,3l-6.8,2.5l-3.3,0.2c-4.2,0.2-7-3.7-8.4-11.6v-6c0.5-12.1,2.3-24.9,5-38.2l0.9-0.4h1.1
	V243.4z"/>
<g>
	
		<radialGradient id="SVGID_00000125598288316428600460000004551510455151878587_" cx="-96.5019" cy="578.881" r="1" gradientTransform="matrix(150.97 0 0 -150.97 14775.7998 87854.3359)" gradientUnits="userSpaceOnUse">
		<stop  offset="0.33" style="stop-color:#FFFFFF"/>
		<stop  offset="1" style="stop-color:#F8DE8B"/>
	</radialGradient>
	<path style="fill:url(#SVGID_00000125598288316428600460000004551510455151878587_);" d="M238.1,399.3c-15,3.5-18.8,23.1-24.9,35.6
		c-4.3-1.6-12.2-6.6-11.5-21.6c1-20.6-4.4-23-15.7-26.5c-11.3-3.6-34.5-20-40.4-36.7c-5.9-16.6-12.5,26.8,18,34.3c0,0-14.7,0-26-8.5
		c-11.3-8.5-8.9,17.4,23.8,20.2c0,0-8,4.5-23.5,1.7c-15.5-2.9-2.4,19.9,23.8,13.4c0,0-4.4,6.1-14.7,6.9c-10.3,0.8-1.6,15.6,17.4,5.9
		c0,0-0.2,3.2-6.7,6.7c-6.5,3.6,4.2,10.3,16.2-0.2c0,0-0.4,4-5.4,8c-4,3.3,5.2,8,17-0.1c0,0-0.6,2.3-3.2,4.4c-2.6,2.1,1,7.9,8.9,2.1
		c0,0-2.2,2.8,0.4,2.5s3.8-2.1,3.8-2.1s-1,5.2,2.8,3.3c-15.8,7.7-33,7-33,7c-18.8-3.4-19-28.5-23-16.4c-2.7,8.4,2.3,12.8,5.7,14.8
		c-14.2-7.3-19.2-20.5-20-6.6c-0.8,14.8,19.6,19.5,19.6,19.5c-12.7-1.3-17.7-9-17.4-0.3s15.6,9.5,15.6,9.5c-6.1,4.5-2.9,12.7,0,9.3
		c2.9-3.4,13.7-8,22.5-6.7c8.7,1.3,32.9,16.6,62.8-0.4c28.3-16.1,15.7-45.6,18.8-55.9s15.1-6.6,15.1-6.6S257.4,394.8,238.1,399.3
		L238.1,399.3z"/>
	<path class="st6" d="M256.3,428.4c0,0,2.1-9,11.2-15.2c4.8-3.3,11.6-5.7,21.1-5.6c0,0-24.1-2.3-31,22.5L256.3,428.4z"/>
	<path class="st6" d="M266.7,413.8c0,0-1.5-7.8,4.2-10.6C270.9,403.2,272.3,409.2,266.7,413.8z"/>
	<path class="st6" d="M279.2,408c0,0,2.2-8.8,8.6-10C287.8,398,286.7,405.2,279.2,408z"/>
	<path class="st6" d="M287.2,407c0,0,6.1-6.1,13.3-3.8C300.5,403.2,292.4,407.4,287.2,407z"/>
	<path class="st6" d="M287.2,408c0,0,4.6,0.7,5.4,5.1C292.6,413.2,288.2,411.4,287.2,408z"/>
	<path class="st6" d="M273.2,411.4c0,0,7.1-2.5,11.4,2.4C284.7,413.8,277.9,415.2,273.2,411.4z"/>
	<g>
		
			<linearGradient id="SVGID_00000068641445290542861320000010154419261254169232_" gradientUnits="userSpaceOnUse" x1="269.7306" y1="-105.379" x2="280.0305" y2="-62.849" gradientTransform="matrix(1 0 0 -1 0 323.8898)">
			<stop  offset="0" style="stop-color:#FFFFFF"/>
			<stop  offset="1" style="stop-color:#040000"/>
		</linearGradient>
		<path style="fill:url(#SVGID_00000068641445290542861320000010154419261254169232_);" d="M256.3,428.4c0,0,2.1-9,11.2-15.2
			c4.8-3.3,11.6-5.7,21.1-5.6c0,0-24.1-2.3-31,22.5L256.3,428.4z"/>
		
			<linearGradient id="SVGID_00000062189802616872698120000008205098027741880234_" gradientUnits="userSpaceOnUse" x1="263.9881" y1="-103.9906" x2="274.2981" y2="-61.4506" gradientTransform="matrix(1 0 0 -1 0 323.8898)">
			<stop  offset="0" style="stop-color:#FFFFFF"/>
			<stop  offset="1" style="stop-color:#040000"/>
		</linearGradient>
		<path style="fill:url(#SVGID_00000062189802616872698120000008205098027741880234_);" d="M266.7,413.8c0,0-1.5-7.8,4.2-10.6
			C270.9,403.2,272.3,409.2,266.7,413.8z"/>
		
			<linearGradient id="SVGID_00000033330220962701785170000006271435749228436651_" gradientUnits="userSpaceOnUse" x1="276.7096" y1="-107.0712" x2="287.0196" y2="-64.5412" gradientTransform="matrix(1 0 0 -1 0 323.8898)">
			<stop  offset="0" style="stop-color:#FFFFFF"/>
			<stop  offset="1" style="stop-color:#040000"/>
		</linearGradient>
		<path style="fill:url(#SVGID_00000033330220962701785170000006271435749228436651_);" d="M279.2,408c0,0,2.2-8.8,8.6-10
			C287.8,398,286.7,405.2,279.2,408z"/>
		
			<linearGradient id="SVGID_00000070113389739470184620000016217464393289289919_" gradientUnits="userSpaceOnUse" x1="287.0018" y1="-109.5595" x2="297.3018" y2="-67.0295" gradientTransform="matrix(1 0 0 -1 0 323.8898)">
			<stop  offset="0" style="stop-color:#FFFFFF"/>
			<stop  offset="1" style="stop-color:#040000"/>
		</linearGradient>
		<path style="fill:url(#SVGID_00000070113389739470184620000016217464393289289919_);" d="M287.2,407c0,0,6.1-6.1,13.3-3.8
			C300.5,403.2,292.4,407.4,287.2,407z"/>
		
			<linearGradient id="SVGID_00000043418390375016076210000011489429295301387403_" gradientUnits="userSpaceOnUse" x1="284.5504" y1="-108.969" x2="294.8504" y2="-66.439" gradientTransform="matrix(1 0 0 -1 0 323.8898)">
			<stop  offset="0" style="stop-color:#FFFFFF"/>
			<stop  offset="1" style="stop-color:#040000"/>
		</linearGradient>
		<path style="fill:url(#SVGID_00000043418390375016076210000011489429295301387403_);" d="M287.2,408c0,0,4.6,0.7,5.4,5.1
			C292.6,413.2,288.2,411.4,287.2,408z"/>
		
			<linearGradient id="SVGID_00000103239063469989659760000006933697926256474550_" gradientUnits="userSpaceOnUse" x1="274.6153" y1="-106.5599" x2="284.9253" y2="-64.0299" gradientTransform="matrix(1 0 0 -1 0 323.8898)">
			<stop  offset="0" style="stop-color:#FFFFFF"/>
			<stop  offset="1" style="stop-color:#040000"/>
		</linearGradient>
		<path style="fill:url(#SVGID_00000103239063469989659760000006933697926256474550_);" d="M273.2,411.4c0,0,7.1-2.5,11.4,2.4
			C284.7,413.8,277.9,415.2,273.2,411.4z"/>
	</g>
</g>
</svg>
